<svg xmlns="http://www.w3.org/2000/svg" viewBox="0 0 720 440" font-family="'Comfortaa', 'Nunito', 'Varela Round', system-ui, sans-serif">
  <defs>
    <style>
      @import url('https://fonts.googleapis.com/css2?family=Comfortaa:wght@400;600;700&amp;display=swap');
    </style>
    <marker id="marr" viewBox="0 0 10 10" refX="5" refY="5" markerWidth="5" markerHeight="5" orient="auto-start-reverse">
      <path d="M 0 1 L 8 5 L 0 9 z" fill="#2563eb"/>
    </marker>
  </defs>

  <rect width="720" height="440" fill="#fff"/>

  <text x="360" y="32" text-anchor="middle" font-size="17" font-weight="bold" fill="#2563eb">Tile Scheduling: Morton vs Linear</text>

  <!-- 4 colors, one per 2x2 block group -->
  <!-- Block A (tiles 0-3):  #ef9a9a red    -->
  <!-- Block B (tiles 4-7):  #90caf9 blue   -->
  <!-- Block C (tiles 8-11): #a5d6a7 green  -->
  <!-- Block D (tiles 12-15): #fff59d yellow -->

  <!-- ====== Left: Linear ====== -->
  <text x="155" y="66" text-anchor="middle" font-size="14" font-weight="bold" fill="#333">Linear (row-major)</text>

  <rect x="40" y="82" width="230" height="230" rx="10" fill="#fff" stroke="#333" stroke-width="2"/>

  <!-- Row 0 -->
  <rect x="48" y="90" width="52" height="52" rx="6" fill="#ef9a9a" stroke="#333" stroke-width="1"/>
  <text x="74" y="121" text-anchor="middle" font-size="16" font-weight="bold" fill="#333">0</text>

  <rect x="104" y="90" width="52" height="52" rx="6" fill="#ef9a9a" stroke="#333" stroke-width="1"/>
  <text x="130" y="121" text-anchor="middle" font-size="16" font-weight="bold" fill="#333">1</text>

  <rect x="160" y="90" width="52" height="52" rx="6" fill="#ef9a9a" stroke="#333" stroke-width="1"/>
  <text x="186" y="121" text-anchor="middle" font-size="16" font-weight="bold" fill="#333">2</text>

  <rect x="216" y="90" width="46" height="52" rx="6" fill="#ef9a9a" stroke="#333" stroke-width="1"/>
  <text x="239" y="121" text-anchor="middle" font-size="16" font-weight="bold" fill="#333">3</text>

  <!-- Row 1 -->
  <rect x="48" y="146" width="52" height="52" rx="6" fill="#90caf9" stroke="#333" stroke-width="1"/>
  <text x="74" y="177" text-anchor="middle" font-size="16" font-weight="bold" fill="#333">4</text>

  <rect x="104" y="146" width="52" height="52" rx="6" fill="#90caf9" stroke="#333" stroke-width="1"/>
  <text x="130" y="177" text-anchor="middle" font-size="16" font-weight="bold" fill="#333">5</text>

  <rect x="160" y="146" width="52" height="52" rx="6" fill="#90caf9" stroke="#333" stroke-width="1"/>
  <text x="186" y="177" text-anchor="middle" font-size="16" font-weight="bold" fill="#333">6</text>

  <rect x="216" y="146" width="46" height="52" rx="6" fill="#90caf9" stroke="#333" stroke-width="1"/>
  <text x="239" y="177" text-anchor="middle" font-size="16" font-weight="bold" fill="#333">7</text>

  <!-- Row 2 -->
  <rect x="48" y="202" width="52" height="52" rx="6" fill="#a5d6a7" stroke="#333" stroke-width="1"/>
  <text x="74" y="233" text-anchor="middle" font-size="16" font-weight="bold" fill="#333">8</text>

  <rect x="104" y="202" width="52" height="52" rx="6" fill="#a5d6a7" stroke="#333" stroke-width="1"/>
  <text x="130" y="233" text-anchor="middle" font-size="16" font-weight="bold" fill="#333">9</text>

  <rect x="160" y="202" width="52" height="52" rx="6" fill="#a5d6a7" stroke="#333" stroke-width="1"/>
  <text x="186" y="233" text-anchor="middle" font-size="14" font-weight="bold" fill="#333">10</text>

  <rect x="216" y="202" width="46" height="52" rx="6" fill="#a5d6a7" stroke="#333" stroke-width="1"/>
  <text x="239" y="233" text-anchor="middle" font-size="14" font-weight="bold" fill="#333">11</text>

  <!-- Row 3 -->
  <rect x="48" y="258" width="52" height="46" rx="6" fill="#fff59d" stroke="#333" stroke-width="1"/>
  <text x="74" y="286" text-anchor="middle" font-size="14" font-weight="bold" fill="#333">12</text>

  <rect x="104" y="258" width="52" height="46" rx="6" fill="#fff59d" stroke="#333" stroke-width="1"/>
  <text x="130" y="286" text-anchor="middle" font-size="14" font-weight="bold" fill="#333">13</text>

  <rect x="160" y="258" width="52" height="46" rx="6" fill="#fff59d" stroke="#333" stroke-width="1"/>
  <text x="186" y="286" text-anchor="middle" font-size="14" font-weight="bold" fill="#333">14</text>

  <rect x="216" y="258" width="46" height="46" rx="6" fill="#fff59d" stroke="#333" stroke-width="1"/>
  <text x="239" y="286" text-anchor="middle" font-size="14" font-weight="bold" fill="#333">15</text>

  <text x="155" y="332" text-anchor="middle" font-size="11" fill="#888">tiles read in row order,</text>
  <text x="155" y="348" text-anchor="middle" font-size="11" fill="#888">poor L2 reuse for A and B</text>

  <!-- ====== Right: Morton ====== -->
  <text x="555" y="66" text-anchor="middle" font-size="14" font-weight="bold" fill="#333">Morton (Z-order)</text>

  <rect x="440" y="82" width="230" height="230" rx="10" fill="#fff" stroke="#333" stroke-width="2"/>

  <!-- Row 0: tiles 0,1 (red), 4,5 (blue) -->
  <rect x="448" y="90" width="52" height="52" rx="6" fill="#ef9a9a" stroke="#333" stroke-width="1"/>
  <text x="474" y="121" text-anchor="middle" font-size="16" font-weight="bold" fill="#333">0</text>

  <rect x="504" y="90" width="52" height="52" rx="6" fill="#ef9a9a" stroke="#333" stroke-width="1"/>
  <text x="530" y="121" text-anchor="middle" font-size="16" font-weight="bold" fill="#333">1</text>

  <rect x="560" y="90" width="52" height="52" rx="6" fill="#90caf9" stroke="#333" stroke-width="1"/>
  <text x="586" y="121" text-anchor="middle" font-size="16" font-weight="bold" fill="#333">4</text>

  <rect x="616" y="90" width="46" height="52" rx="6" fill="#90caf9" stroke="#333" stroke-width="1"/>
  <text x="639" y="121" text-anchor="middle" font-size="16" font-weight="bold" fill="#333">5</text>

  <!-- Row 1: tiles 2,3 (red), 6,7 (blue) -->
  <rect x="448" y="146" width="52" height="52" rx="6" fill="#ef9a9a" stroke="#333" stroke-width="1"/>
  <text x="474" y="177" text-anchor="middle" font-size="16" font-weight="bold" fill="#333">2</text>

  <rect x="504" y="146" width="52" height="52" rx="6" fill="#ef9a9a" stroke="#333" stroke-width="1"/>
  <text x="530" y="177" text-anchor="middle" font-size="16" font-weight="bold" fill="#333">3</text>

  <rect x="560" y="146" width="52" height="52" rx="6" fill="#90caf9" stroke="#333" stroke-width="1"/>
  <text x="586" y="177" text-anchor="middle" font-size="16" font-weight="bold" fill="#333">6</text>

  <rect x="616" y="146" width="46" height="52" rx="6" fill="#90caf9" stroke="#333" stroke-width="1"/>
  <text x="639" y="177" text-anchor="middle" font-size="16" font-weight="bold" fill="#333">7</text>

  <!-- Row 2: tiles 8,9 (green), 12,13 (yellow) -->
  <rect x="448" y="202" width="52" height="52" rx="6" fill="#a5d6a7" stroke="#333" stroke-width="1"/>
  <text x="474" y="233" text-anchor="middle" font-size="16" font-weight="bold" fill="#333">8</text>

  <rect x="504" y="202" width="52" height="52" rx="6" fill="#a5d6a7" stroke="#333" stroke-width="1"/>
  <text x="530" y="233" text-anchor="middle" font-size="16" font-weight="bold" fill="#333">9</text>

  <rect x="560" y="202" width="52" height="52" rx="6" fill="#fff59d" stroke="#333" stroke-width="1"/>
  <text x="586" y="233" text-anchor="middle" font-size="14" font-weight="bold" fill="#333">12</text>

  <rect x="616" y="202" width="46" height="52" rx="6" fill="#fff59d" stroke="#333" stroke-width="1"/>
  <text x="639" y="233" text-anchor="middle" font-size="14" font-weight="bold" fill="#333">13</text>

  <!-- Row 3: tiles 10,11 (green), 14,15 (yellow) -->
  <rect x="448" y="258" width="52" height="46" rx="6" fill="#a5d6a7" stroke="#333" stroke-width="1"/>
  <text x="474" y="286" text-anchor="middle" font-size="14" font-weight="bold" fill="#333">10</text>

  <rect x="504" y="258" width="52" height="46" rx="6" fill="#a5d6a7" stroke="#333" stroke-width="1"/>
  <text x="530" y="286" text-anchor="middle" font-size="14" font-weight="bold" fill="#333">11</text>

  <rect x="560" y="258" width="52" height="46" rx="6" fill="#fff59d" stroke="#333" stroke-width="1"/>
  <text x="586" y="286" text-anchor="middle" font-size="14" font-weight="bold" fill="#333">14</text>

  <rect x="616" y="258" width="46" height="46" rx="6" fill="#fff59d" stroke="#333" stroke-width="1"/>
  <text x="639" y="286" text-anchor="middle" font-size="14" font-weight="bold" fill="#333">15</text>

  <!-- Z-path arrows in first 2x2 block -->
  <line x1="474" y1="126" x2="524" y2="126" stroke="#2563eb" stroke-width="2" marker-end="url(#marr)"/>
  <line x1="530" y1="132" x2="480" y2="158" stroke="#2563eb" stroke-width="2" marker-end="url(#marr)"/>
  <line x1="474" y1="182" x2="524" y2="182" stroke="#2563eb" stroke-width="2" marker-end="url(#marr)"/>

  <text x="555" y="332" text-anchor="middle" font-size="11" fill="#888">2x2 blocks processed together,</text>
  <text x="555" y="348" text-anchor="middle" font-size="11" fill="#888">neighbors share A-rows and B-cols in L2</text>

  <!-- ====== Bottom explanation ====== -->
  <rect x="100" y="370" width="520" height="56" rx="12" fill="#dbeafe" stroke="#2563eb" stroke-width="1.5"/>
  <text x="360" y="394" text-anchor="middle" font-size="12" font-weight="bold" fill="#2563eb">Why Morton?</text>
  <text x="360" y="414" text-anchor="middle" font-size="11" fill="#555">Tiles 0,1,2,3 share two A-rows and two B-columns in L2 cache. Less memory traffic.</text>
</svg>
