<svg xmlns="http://www.w3.org/2000/svg" viewBox="0 0 640 400" font-family="'Comfortaa', 'Nunito', 'Varela Round', system-ui, sans-serif">
  <defs>
    <style>
      @import url('https://fonts.googleapis.com/css2?family=Comfortaa:wght@400;600;700&amp;display=swap');
    </style>
  </defs>

  <rect width="620" height="400" fill="#fff"/>

  <text x="320" y="32" text-anchor="middle" font-size="17" font-weight="bold" fill="#2563eb">Simdgroup Layout (WM=4, WN=4)</text>
  <text x="320" y="52" text-anchor="middle" font-size="12" fill="#888">128 x 128 output tile, 16 simdgroups, each handles 32 x 32</text>

  <!-- Outer tile border -->
  <rect x="60" y="72" width="520" height="280" rx="12" fill="#fff9c4" stroke="#333" stroke-width="2"/>

  <!-- Column headers -->
  <text x="185" y="90" text-anchor="middle" font-size="10" fill="#888">col 0..31</text>
  <text x="310" y="90" text-anchor="middle" font-size="10" fill="#888">col 32..63</text>
  <text x="435" y="90" text-anchor="middle" font-size="10" fill="#888">col 64..95</text>

  <!-- Row 0 -->
  <rect x="75" y="98" width="115" height="55" rx="8" fill="#ef9a9a" stroke="#333" stroke-width="1.5"/>
  <text x="132" y="122" text-anchor="middle" font-size="11" font-weight="bold" fill="#333">sg(0,0)</text>
  <text x="132" y="138" text-anchor="middle" font-size="9" fill="#666">32 x 32</text>

  <rect x="200" y="98" width="115" height="55" rx="8" fill="#ce93d8" stroke="#333" stroke-width="1.5"/>
  <text x="257" y="122" text-anchor="middle" font-size="11" font-weight="bold" fill="#333">sg(0,1)</text>
  <text x="257" y="138" text-anchor="middle" font-size="9" fill="#666">32 x 32</text>

  <rect x="325" y="98" width="115" height="55" rx="8" fill="#90caf9" stroke="#333" stroke-width="1.5"/>
  <text x="382" y="122" text-anchor="middle" font-size="11" font-weight="bold" fill="#333">sg(0,2)</text>
  <text x="382" y="138" text-anchor="middle" font-size="9" fill="#666">32 x 32</text>

  <rect x="450" y="98" width="115" height="55" rx="8" fill="#80cbc4" stroke="#333" stroke-width="1.5"/>
  <text x="507" y="122" text-anchor="middle" font-size="11" font-weight="bold" fill="#333">sg(0,3)</text>
  <text x="507" y="138" text-anchor="middle" font-size="9" fill="#666">32 x 32</text>

  <!-- Row 1 -->
  <rect x="75" y="161" width="115" height="55" rx="8" fill="#a5d6a7" stroke="#333" stroke-width="1.5"/>
  <text x="132" y="185" text-anchor="middle" font-size="11" font-weight="bold" fill="#333">sg(1,0)</text>
  <text x="132" y="201" text-anchor="middle" font-size="9" fill="#666">32 x 32</text>

  <rect x="200" y="161" width="115" height="55" rx="8" fill="#fff59d" stroke="#333" stroke-width="1.5"/>
  <text x="257" y="185" text-anchor="middle" font-size="11" font-weight="bold" fill="#333">sg(1,1)</text>
  <text x="257" y="201" text-anchor="middle" font-size="9" fill="#666">32 x 32</text>

  <rect x="325" y="161" width="115" height="55" rx="8" fill="#ffab91" stroke="#333" stroke-width="1.5"/>
  <text x="382" y="185" text-anchor="middle" font-size="11" font-weight="bold" fill="#333">sg(1,2)</text>
  <text x="382" y="201" text-anchor="middle" font-size="9" fill="#666">32 x 32</text>

  <rect x="450" y="161" width="115" height="55" rx="8" fill="#b0bec5" stroke="#333" stroke-width="1.5"/>
  <text x="507" y="185" text-anchor="middle" font-size="11" font-weight="bold" fill="#333">sg(1,3)</text>
  <text x="507" y="201" text-anchor="middle" font-size="9" fill="#666">32 x 32</text>

  <!-- Row 2 -->
  <rect x="75" y="224" width="115" height="55" rx="8" fill="#b39ddb" stroke="#333" stroke-width="1.5"/>
  <text x="132" y="248" text-anchor="middle" font-size="11" font-weight="bold" fill="#333">sg(2,0)</text>
  <text x="132" y="264" text-anchor="middle" font-size="9" fill="#666">32 x 32</text>

  <rect x="200" y="224" width="115" height="55" rx="8" fill="#80deea" stroke="#333" stroke-width="1.5"/>
  <text x="257" y="248" text-anchor="middle" font-size="11" font-weight="bold" fill="#333">sg(2,1)</text>
  <text x="257" y="264" text-anchor="middle" font-size="9" fill="#666">32 x 32</text>

  <rect x="325" y="224" width="115" height="55" rx="8" fill="#ef9a9a" stroke="#333" stroke-width="1.5"/>
  <text x="382" y="248" text-anchor="middle" font-size="11" font-weight="bold" fill="#333">sg(2,2)</text>
  <text x="382" y="264" text-anchor="middle" font-size="9" fill="#666">32 x 32</text>

  <rect x="450" y="224" width="115" height="55" rx="8" fill="#a5d6a7" stroke="#333" stroke-width="1.5"/>
  <text x="507" y="248" text-anchor="middle" font-size="11" font-weight="bold" fill="#333">sg(2,3)</text>
  <text x="507" y="264" text-anchor="middle" font-size="9" fill="#666">32 x 32</text>

  <!-- Row 3 -->
  <rect x="75" y="287" width="115" height="55" rx="8" fill="#90caf9" stroke="#333" stroke-width="1.5"/>
  <text x="132" y="311" text-anchor="middle" font-size="11" font-weight="bold" fill="#333">sg(3,0)</text>
  <text x="132" y="327" text-anchor="middle" font-size="9" fill="#666">32 x 32</text>

  <rect x="200" y="287" width="115" height="55" rx="8" fill="#ce93d8" stroke="#333" stroke-width="1.5"/>
  <text x="257" y="311" text-anchor="middle" font-size="11" font-weight="bold" fill="#333">sg(3,1)</text>
  <text x="257" y="327" text-anchor="middle" font-size="9" fill="#666">32 x 32</text>

  <rect x="325" y="287" width="115" height="55" rx="8" fill="#fff59d" stroke="#333" stroke-width="1.5"/>
  <text x="382" y="311" text-anchor="middle" font-size="11" font-weight="bold" fill="#333">sg(3,2)</text>
  <text x="382" y="327" text-anchor="middle" font-size="9" fill="#666">32 x 32</text>

  <rect x="450" y="287" width="115" height="55" rx="8" fill="#ffab91" stroke="#333" stroke-width="1.5"/>
  <text x="507" y="311" text-anchor="middle" font-size="11" font-weight="bold" fill="#333">sg(3,3)</text>
  <text x="507" y="327" text-anchor="middle" font-size="9" fill="#666">32 x 32</text>

  <!-- Bottom note -->
  <text x="320" y="374" text-anchor="middle" font-size="11" fill="#555">Each simdgroup = 32 threads computing one subtile independently.</text>
  <text x="320" y="392" text-anchor="middle" font-size="11" fill="#555">sg_row = sgid / WN,   sg_col = sgid % WN</text>
</svg>
