<svg xmlns="http://www.w3.org/2000/svg" viewBox="0 0 760 520" font-family="'Comfortaa', 'Nunito', 'Varela Round', system-ui, sans-serif">
  <defs>
    <style>
      @import url('https://fonts.googleapis.com/css2?family=Comfortaa:wght@400;600;700&amp;display=swap');
    </style>
    <marker id="arr" viewBox="0 0 10 10" refX="5" refY="5" markerWidth="6" markerHeight="6" orient="auto-start-reverse">
      <path d="M 0 1 L 8 5 L 0 9 z" fill="#444"/>
    </marker>
  </defs>

  <rect width="760" height="520" fill="#fff"/>

  <text x="380" y="32" text-anchor="middle" font-size="17" font-weight="bold" fill="#2563eb">How Tiling Works</text>

  <!-- ====== Matrix C tiled grid ====== -->
  <text x="130" y="66" text-anchor="middle" font-size="14" font-weight="bold" fill="#333">Output matrix C (M x N)</text>

  <rect x="30" y="80" width="200" height="200" rx="10" fill="#dbeafe" stroke="#333" stroke-width="2"/>

  <!-- Grid lines -->
  <line x1="130" y1="80" x2="130" y2="280" stroke="#93c5fd" stroke-width="1"/>
  <line x1="30" y1="180" x2="230" y2="180" stroke="#93c5fd" stroke-width="1"/>

  <!-- Tile labels -->
  <text x="80" y="136" text-anchor="middle" font-size="12" font-weight="bold" fill="#1e40af">pid=(0,0)</text>
  <text x="80" y="154" text-anchor="middle" font-size="10" fill="#999">BM x BN</text>
  <text x="180" y="136" text-anchor="middle" font-size="11" fill="#888">pid=(0,1)</text>
  <text x="80" y="236" text-anchor="middle" font-size="11" fill="#888">pid=(1,0)</text>
  <text x="180" y="236" text-anchor="middle" font-size="11" fill="#888">pid=(1,1)</text>

  <!-- Highlight tile (0,0) -->
  <rect x="30" y="80" width="100" height="100" rx="6" fill="#60a5fa" opacity="0.35" stroke="#1d4ed8" stroke-width="2.5"/>

  <!-- Dimension labels -->
  <text x="130" y="300" text-anchor="middle" font-size="11" fill="#888">N</text>
  <text x="18" y="180" font-size="11" fill="#888" transform="rotate(-90,18,180)">M</text>

  <text x="130" y="322" text-anchor="middle" font-size="11" fill="#555">grid = (ceil(M/BM), ceil(N/BN))</text>

  <!-- ====== Arrow ====== -->
  <line x1="250" y1="170" x2="300" y2="170" stroke="#444" stroke-width="2" marker-end="url(#arr)"/>
  <text x="275" y="160" text-anchor="middle" font-size="10" fill="#555" font-style="italic">zoom in</text>

  <!-- ====== Inside pid=(0,0): K-loop ====== -->
  <rect x="310" y="56" width="430" height="440" rx="14" fill="#fce4ec" stroke="#333" stroke-width="2"/>
  <text x="525" y="84" text-anchor="middle" font-size="14" font-weight="bold" fill="#333">Inside pid=(0,0)</text>

  <!-- K iteration 0 -->
  <text x="525" y="114" text-anchor="middle" font-size="11" font-weight="bold" fill="#555">k = 0</text>

  <rect x="340" y="124" width="90" height="64" rx="8" fill="#c8e6c9" stroke="#333" stroke-width="1.5"/>
  <text x="385" y="152" text-anchor="middle" font-size="11" font-weight="bold" fill="#333">A tile</text>
  <text x="385" y="168" text-anchor="middle" font-size="9" fill="#666">BM x BK</text>

  <text x="445" y="160" text-anchor="middle" font-size="16" font-weight="bold" fill="#333">x</text>

  <rect x="462" y="124" width="70" height="64" rx="8" fill="#bbdefb" stroke="#333" stroke-width="1.5"/>
  <text x="497" y="152" text-anchor="middle" font-size="11" font-weight="bold" fill="#333">B tile</text>
  <text x="497" y="168" text-anchor="middle" font-size="9" fill="#666">BK x BN</text>

  <text x="553" y="160" text-anchor="middle" font-size="14" font-weight="bold" fill="#333">+=</text>

  <rect x="578" y="124" width="80" height="64" rx="8" fill="#fff9c4" stroke="#333" stroke-width="1.5"/>
  <text x="618" y="152" text-anchor="middle" font-size="11" font-weight="bold" fill="#333">acc</text>
  <text x="618" y="168" text-anchor="middle" font-size="9" fill="#666">BM x BN</text>

  <!-- Arrow down -->
  <line x1="525" y1="198" x2="525" y2="226" stroke="#444" stroke-width="1.5" marker-end="url(#arr)"/>
  <text x="545" y="216" font-size="10" fill="#555" font-style="italic">k += BK</text>

  <!-- K iteration 1 -->
  <text x="525" y="246" text-anchor="middle" font-size="11" font-weight="bold" fill="#555">k = BK</text>

  <rect x="340" y="256" width="90" height="64" rx="8" fill="#c8e6c9" stroke="#333" stroke-width="1.5"/>
  <text x="385" y="284" text-anchor="middle" font-size="11" font-weight="bold" fill="#333">A tile</text>
  <text x="385" y="300" text-anchor="middle" font-size="9" fill="#666">BM x BK</text>

  <text x="445" y="292" text-anchor="middle" font-size="16" font-weight="bold" fill="#333">x</text>

  <rect x="462" y="256" width="70" height="64" rx="8" fill="#bbdefb" stroke="#333" stroke-width="1.5"/>
  <text x="497" y="284" text-anchor="middle" font-size="11" font-weight="bold" fill="#333">B tile</text>
  <text x="497" y="300" text-anchor="middle" font-size="9" fill="#666">BK x BN</text>

  <text x="553" y="292" text-anchor="middle" font-size="14" font-weight="bold" fill="#333">+=</text>

  <rect x="578" y="256" width="80" height="64" rx="8" fill="#fff9c4" stroke="#333" stroke-width="1.5"/>
  <text x="618" y="284" text-anchor="middle" font-size="11" font-weight="bold" fill="#333">acc</text>
  <text x="618" y="300" text-anchor="middle" font-size="9" fill="#666">accumulated</text>

  <!-- Dots -->
  <text x="525" y="348" text-anchor="middle" font-size="14" fill="#aaa">. . .   K / BK iterations   . . .</text>

  <!-- Arrow to store -->
  <line x1="525" y1="362" x2="525" y2="390" stroke="#444" stroke-width="1.5" marker-end="url(#arr)"/>

  <!-- Store -->
  <rect x="390" y="396" width="270" height="44" rx="10" fill="#c8e6c9" stroke="#333" stroke-width="2"/>
  <text x="525" y="424" text-anchor="middle" font-size="12" font-weight="bold" fill="#333">tile_store(C, ..., acc)</text>

  <!-- dot() callout -->
  <rect x="680" y="138" width="48" height="38" rx="8" fill="#e8eaf6" stroke="#333" stroke-width="1.5"/>
  <text x="704" y="162" text-anchor="middle" font-size="9" font-weight="bold" fill="#333">dot()</text>
  <rect x="680" y="270" width="48" height="38" rx="8" fill="#e8eaf6" stroke="#333" stroke-width="1.5"/>
  <text x="704" y="294" text-anchor="middle" font-size="9" font-weight="bold" fill="#333">dot()</text>
</svg>
